# xmcd
#
# Track frame offsets:
#	182
#	13796
#	27015
#	43489
#	55634
#	69146
#	81751
#	92851
#	111071
#	139176
#	154807
#	167510
#	182088
#	195082
#	209083
#	221093
#	234580
#	249276
#
# Disc length: 3512 seconds
#
# Revision: 1
# Processed by: cddbd v1.5.2PL0 Copyright (c) Steve Scherf et al.
# Submitted via: audiograbber 1.83.01
#
DISCID=f00db612
DTITLE=Various Artist - Birth of Be Bop (Wichita - New York 40-45) CD1
DYEAR=1940
DGENRE=Jazz
TTITLE0=Jones Smith Inc - Shone Shine Boy
TTITLE1=Gene Krupa's swing band - Swing is here
TTITLE2=Art Tatum - Mighty lak a rose
TTITLE3=Teddy Hill and his NBC orchestra - Blue rhythm fantasy
TTITLE4=Jay McShann and his orchestra - Honeysuckle rose
TTITLE5=Cab Calloway and his orchestra - Pickin' the cabbage
TTITLE6=Clark Monroe's band - I got rhythm
TTITLE7=Minton's Playhouse band - Nice work if you can get it
TTITLE8=Minton's Playhouse band - Honeysuckle rose
TTITLE9=Minton's Playhouse band - Stardust
TTITLE10=Clark Monroe's band - Cherokee
TTITLE11=Jay McShann and his orchestra - Sepian Bounce
TTITLE12=Andy Kirk and his 12 clouds of joy - McGhee special
TTITLE13=Lucky Millinder and his orchestra - Little John special
TTITLE14=Cootie Williams sextet - Floogie boo
TTITLE15=Coleman Hawkings - Woody'n you
TTITLE16=Cootie Williams and his orchestra - 'round midnight
TTITLE17=Tiny Grimes quintet - Redcross
EXTD=Selections 1936-1945.\nMusic at the crossover between swing and bebop.
EXTT0=
EXTT1=
EXTT2=
EXTT3=
EXTT4=
EXTT5=
EXTT6=
EXTT7=
EXTT8=
EXTT9=
EXTT10=
EXTT11=
EXTT12=
EXTT13=
EXTT14=
EXTT15=
EXTT16=
EXTT17=
PLAYORDER=
